<?xml version="1.0" encoding="UTF-8" standalone="no"?>
<!-- Created with Inkscape (http://www.inkscape.org/) -->

<svg
   width="210mm"
   height="297mm"
   viewBox="0 0 210 297"
   version="1.1"
   id="svg5"
   inkscape:version="1.1 (c68e22c387, 2021-05-23)"
   sodipodi:docname="icon_101.svg"
   xmlns:inkscape="http://www.inkscape.org/namespaces/inkscape"
   xmlns:sodipodi="http://sodipodi.sourceforge.net/DTD/sodipodi-0.dtd"
   xmlns="http://www.w3.org/2000/svg"
   xmlns:svg="http://www.w3.org/2000/svg">
  <sodipodi:namedview
     id="namedview7"
     pagecolor="#ffffff"
     bordercolor="#666666"
     borderopacity="1.0"
     inkscape:pageshadow="2"
     inkscape:pageopacity="0.0"
     inkscape:pagecheckerboard="0"
     inkscape:document-units="mm"
     showgrid="false"
     inkscape:zoom="0.92648709"
     inkscape:cx="429.03998"
     inkscape:cy="274.69352"
     inkscape:window-width="1366"
     inkscape:window-height="705"
     inkscape:window-x="-8"
     inkscape:window-y="-8"
     inkscape:window-maximized="1"
     inkscape:current-layer="layer1" />
  <defs
     id="defs2">
    <marker
       style="overflow:visible;"
       id="Arrow1Lend"
       refX="0.0"
       refY="0.0"
       orient="auto"
       inkscape:stockid="Arrow1Lend"
       inkscape:isstock="true">
      <path
         transform="scale(0.8) rotate(180) translate(12.5,0)"
         style="fill-rule:evenodd;fill:context-stroke;stroke:context-stroke;stroke-width:1.0pt;"
         d="M 0.0,0.0 L 5.0,-5.0 L -12.5,0.0 L 5.0,5.0 L 0.0,0.0 z "
         id="path11223" />
    </marker>
    <marker
       style="overflow:visible"
       id="Arrow1Lstart"
       refX="0.0"
       refY="0.0"
       orient="auto"
       inkscape:stockid="Arrow1Lstart"
       inkscape:isstock="true">
      <path
         transform="scale(0.8) translate(12.5,0)"
         style="fill-rule:evenodd;fill:context-stroke;stroke:context-stroke;stroke-width:1.0pt"
         d="M 0.0,0.0 L 5.0,-5.0 L -12.5,0.0 L 5.0,5.0 L 0.0,0.0 z "
         id="path11220" />
    </marker>
    <filter
       style="color-interpolation-filters:sRGB;"
       inkscape:label="Brilliance"
       id="filter2320"
       x="0"
       y="0"
       width="1"
       height="1">
      <feColorMatrix
         values="2 -0.5 -0.5 0 0 -0.5 2 -0.5 0 0 -0.5 -0.5 2 0 0 0 0 0 1 0 "
         id="feColorMatrix2318"
         result="fbSourceGraphic" />
      <feColorMatrix
         result="fbSourceGraphicAlpha"
         in="fbSourceGraphic"
         values="0 0 0 -1 0 0 0 0 -1 0 0 0 0 -1 0 0 0 0 1 0"
         id="feColorMatrix2340" />
      <feColorMatrix
         id="feColorMatrix2342"
         values="2 -0.5 -0.5 0 0 -0.5 2 -0.5 0 0 -0.5 -0.5 2 0 0 0 0 0 1 0 "
         in="fbSourceGraphic" />
    </filter>
  </defs>
  <g
     inkscape:label="Layer 1"
     inkscape:groupmode="layer"
     id="layer1">
    <ellipse
       style="fill:#e10055;fill-rule:evenodd;stroke-width:1.20899994;stroke-linecap:round;stroke-linejoin:round;stroke-dasharray:4.83599976, 4.83599976;fill-opacity:1;stroke:#ffffff;stroke-opacity:1;stroke-miterlimit:4;stroke-dashoffset:0"
       id="path241"
       cx="109.40351"
       cy="84.174606"
       rx="78.50885"
       ry="69.299179"
       transform="matrix(0.99999318,-0.00369436,0.00336929,0.99999432,0,0)"
       inkscape:export-filename="C:\Users\april\OneDrive\Desktop\ICT5-WEBDEV\FLAVOURS101\pictures\flavor101.png"
       inkscape:export-xdpi="96"
       inkscape:export-ydpi="96" />
    <path
       style="fill:#ffffff;stroke-width:0.292082;filter:url(#filter2320)"
       d="m 105.0518,154.2491 c 0,-0.43573 0.17185,-0.51855 0.85812,-0.41352 0.4803,0.0735 0.85812,0.31339 0.85812,0.54484 0,0.26064 -0.31726,0.41353 -0.85812,0.41353 -0.64031,0 -0.85812,-0.1383 -0.85812,-0.54485 z m 3.43248,0.0975 c 0,-0.31245 0.30193,-0.44737 1.00114,-0.44737 0.69921,0 1.00114,0.13492 1.00114,0.44737 0,0.31246 -0.30193,0.44738 -1.00114,0.44738 -0.69921,0 -1.00114,-0.13492 -1.00114,-0.44738 z m 3.71852,0 c 0,-0.29825 0.28604,-0.44737 0.85812,-0.44737 0.57208,0 0.85812,0.14912 0.85812,0.44737 0,0.29825 -0.28604,0.44738 -0.85812,0.44738 -0.57208,0 -0.85812,-0.14913 -0.85812,-0.44738 z m -10.86952,-0.29825 c 0,-0.29825 0.28604,-0.44738 0.85812,-0.44738 0.57208,0 0.85812,0.14913 0.85812,0.44738 0,0.29825 -0.28604,0.44738 -0.85812,0.44738 -0.57208,0 -0.85812,-0.14913 -0.85812,-0.44738 z m 14.58804,0 c 0,-0.29825 0.28604,-0.44738 0.85812,-0.44738 0.57208,0 0.85812,0.14913 0.85812,0.44738 0,0.29825 -0.28604,0.44738 -0.85812,0.44738 -0.57208,0 -0.85812,-0.14913 -0.85812,-0.44738 z m -17.921809,-0.31111 c -0.2288,-0.62168 -0.0924,-0.70747 0.83092,-0.52254 0.43263,0.0867 0.78661,0.34323 0.78661,0.57017 0,0.57072 -1.4052,0.52934 -1.61753,-0.0476 z m 21.354289,0.0129 c 0,-0.29825 0.28604,-0.44738 0.85812,-0.44738 0.57208,0 0.85812,0.14913 0.85812,0.44738 0,0.29825 -0.28604,0.44738 -0.85812,0.44738 -0.57208,0 -0.85812,-0.14913 -0.85812,-0.44738 z m 3.71852,-0.49903 c 0,-0.40655 0.21781,-0.54485 0.85812,-0.54485 0.54086,0 0.85812,0.15289 0.85812,0.41353 0,0.23145 -0.37782,0.47134 -0.85812,0.54484 -0.68627,0.10503 -0.85812,0.0222 -0.85812,-0.41352 z m -28.699349,0.15107 c -0.41006,-0.42756 -0.15269,-0.69592 0.66743,-0.69592 0.57208,0 0.85812,0.14913 0.85812,0.44738 0,0.45142 -1.15111,0.63896 -1.52555,0.24854 z m -3.26562,-0.59519 c -0.19665,-0.0827 -0.35755,-0.35493 -0.35755,-0.60487 0,-0.29185 0.16188,-0.38966 0.45246,-0.2734 0.24884,0.0996 0.635,0.18104 0.85812,0.18104 0.22311,0 0.40566,0.20132 0.40566,0.44737 0,0.43583 -0.63787,0.55313 -1.35869,0.24986 z m 35.467179,-0.17529 c 0.18228,-0.57881 1.64651,-0.66273 1.64651,-0.0944 0,0.32307 -0.27207,0.46719 -0.88196,0.46719 -0.57749,0 -0.84143,-0.1287 -0.76455,-0.37281 z m 3.54823,-0.42796 c -0.35665,-0.37187 -0.17955,-0.62737 0.57099,-0.82379 0.65954,-0.1726 1.56974,0.22343 1.22673,0.53376 -0.27911,0.25251 -1.62539,0.46971 -1.79772,0.29003 z m -42.867944,-0.25858 c -0.101264,-0.10558 -0.120011,-0.36616 -0.04166,-0.57906 0.163841,-0.44519 1.514693,-0.18493 1.53782,0.29628 0.01636,0.34051 -1.217192,0.57366 -1.496158,0.28278 z m 46.314664,-0.83275 c -0.10202,-0.27722 0.0662,-0.49844 0.46366,-0.60957 1.00032,-0.27974 1.33889,-0.21278 1.33889,0.26479 0,0.24605 -0.18255,0.44737 -0.40566,0.44737 -0.22312,0 -0.59266,0.0748 -0.82121,0.16627 -0.22855,0.0915 -0.48761,-0.0296 -0.57568,-0.26886 z m -49.682246,-0.1878 c -0.605075,-0.39888 -0.01565,-0.92838 0.789152,-0.70893 0.35126,0.0958 0.638656,0.35981 0.638656,0.58673 0,0.47129 -0.795036,0.53933 -1.427808,0.1222 z m -3.077321,-0.91191 c -1.194517,-0.50063 -0.719991,-1.28442 0.507498,-0.83825 0.530058,0.19267 0.761616,0.44566 0.66018,0.72128 -0.17739,0.482 -0.273694,0.49165 -1.167678,0.11697 z m 56.278357,-0.10504 c 0,-0.35343 0.79201,-0.76287 1.50171,-0.77634 0.40938,-0.008 0.21213,0.82782 -0.23792,1.00789 -0.74923,0.29978 -1.26379,0.2055 -1.26379,-0.23155 z M 77.223982,148.7708 c -0.628778,-0.68915 -0.387375,-1.19414 0.4643,-0.97126 0.528273,0.13825 0.73546,-0.0534 1.248925,-1.15541 l 0.615587,-1.32115 -2.463436,-0.55844 -2.463436,-0.55844 2.691555,-0.14913 2.691556,-0.14912 0.445304,-2.38602 c 0.479535,-2.56944 0.670875,-2.62748 0.983248,-0.29825 0.416683,3.10702 0.102345,2.86909 3.55265,2.68914 l 3.042186,-0.15866 -2.622499,0.82252 c -1.442374,0.45239 -2.711773,0.91583 -2.820886,1.02986 -0.109113,0.11404 0.293016,0.85221 0.893617,1.64039 0.600601,0.78817 1.226411,1.62911 1.390686,1.86876 0.320231,0.46716 -1.03886,-0.45564 -2.75751,-1.87231 l -1.053917,-0.86874 -0.864487,0.64185 c -0.47547,0.35302 -1.09531,0.94514 -1.377426,1.31582 -0.750646,0.9863 -1.027,1.06225 -1.596017,0.43859 z m 63.296768,-0.0238 c 0,-0.5309 1.16218,-0.91326 1.54922,-0.5097 0.34597,0.36074 0.2099,0.49426 -0.76319,0.74892 -0.59424,0.15551 -0.78603,0.0971 -0.78603,-0.23922 z m 3.3427,-1.22301 c -0.21373,-0.58075 1.23716,-1.25989 1.55305,-0.72696 0.14786,0.24946 0.006,0.51306 -0.40313,0.75032 -0.81847,0.47437 -0.96786,0.47133 -1.14992,-0.0233 z m -69.876547,-0.27201 c -0.930491,-0.55927 -0.557953,-1.1338 0.488533,-0.75342 0.469812,0.17077 0.808131,0.45461 0.751819,0.63076 -0.154462,0.48317 -0.571883,0.52445 -1.240352,0.12266 z m 73.222307,-1.16373 c -0.21392,-0.36091 0.62706,-1.13652 1.23231,-1.13652 0.63907,0 0.41129,0.78148 -0.3305,1.13389 -0.51756,0.24588 -0.75721,0.24658 -0.90181,0.003 z m -76.410694,-0.30752 c -1.089295,-0.54778 -0.712511,-1.25345 0.42906,-0.80359 0.353974,0.1395 0.643589,0.45927 0.643589,0.71061 0,0.52635 -0.179853,0.54194 -1.072649,0.093 z m -3.217949,-1.72375 c -0.516577,-0.40764 -0.62855,-0.65487 -0.40334,-0.89056 0.225543,-0.23603 0.502407,-0.16386 1.00114,0.26098 0.959784,0.81758 0.394661,1.41275 -0.5978,0.62958 z m 82.827903,0.33087 c -0.0866,-0.14609 0.17943,-0.49578 0.59118,-0.77708 0.59699,-0.40786 0.7951,-0.43305 0.97807,-0.12436 0.1411,0.23806 0.0446,0.53361 -0.25051,0.76761 -0.56725,0.44969 -1.09951,0.50371 -1.31874,0.13383 z m 3.14644,-1.7895 c -0.0866,-0.1461 0.17943,-0.49579 0.59118,-0.77709 0.59699,-0.40786 0.7951,-0.43305 0.97807,-0.12435 0.1411,0.23805 0.0447,0.53361 -0.25051,0.7676 -0.56725,0.44969 -1.09951,0.50371 -1.31874,0.13384 z m -89.280642,-0.45992 c -0.386211,-0.29722 -0.464617,-0.52337 -0.25755,-0.74287 0.357035,-0.37847 1.667049,0.45266 1.406452,0.89232 -0.227765,0.38426 -0.501679,0.34863 -1.148902,-0.14945 z m 92.395982,-1.38206 c -0.20383,-0.34388 0.64456,-1.14821 1.22743,-1.16368 0.52066,-0.0138 0.43738,0.6072 -0.14302,1.0666 -0.6153,0.48701 -0.8413,0.50725 -1.08441,0.0971 z m -95.408283,-0.54358 c -0.959784,-0.81758 -0.39466,-1.41275 0.597801,-0.62958 0.516577,0.40764 0.62855,0.65487 0.403339,0.89056 -0.225542,0.23603 -0.502406,0.16386 -1.00114,-0.26098 z m 98.423463,-1.63694 c 0,-0.62458 0.78797,-1.17265 1.35505,-0.94248 0.4571,0.18553 0.44112,0.25831 -0.17107,0.77899 -0.79655,0.67749 -1.18398,0.73099 -1.18398,0.16349 z m -115.845442,-0.0467 c 4e-4,-0.15843 0.456559,-1.07627 1.013676,-2.03964 0.557118,-0.96337 0.973817,-1.79238 0.925999,-1.84224 -0.04782,-0.0499 -1.051025,-0.36536 -2.229347,-0.7011 l -2.142403,-0.61045 2.420399,0.0667 2.420399,0.0667 0.458771,-2.38601 0.45877,-2.38601 0.41029,2.38601 c 0.261636,1.52152 0.539835,2.3752 0.767839,2.35618 0.196653,-0.0164 1.114846,-0.05 2.040429,-0.0746 1.449585,-0.0385 1.704633,-0.13148 1.839809,-0.67046 0.154162,-0.61469 0.169722,-0.616 0.88178,-0.0746 0.816345,0.62074 0.815482,1.18627 -0.0016,1.0719 -0.620175,-0.0868 -4.142027,0.79096 -4.493582,1.11996 -0.128573,0.12032 0.42317,1.04185 1.226097,2.04786 0.802922,1.006 1.407217,1.8291 1.342873,1.8291 -0.06434,0 -0.92211,-0.67107 -1.906146,-1.49126 -0.984036,-0.82019 -1.9296,-1.49126 -2.101253,-1.49126 -0.171654,0 -0.991914,0.70004 -1.822801,1.55563 -0.830888,0.8556 -1.510374,1.42601 -1.509969,1.26757 z m 14.460593,-0.41839 c -0.275778,-0.31774 -0.417733,-0.71889 -0.315457,-0.89144 0.275951,-0.46556 1.589368,0.51734 1.395442,1.04428 -0.210984,0.57328 -0.483199,0.53475 -1.079985,-0.15284 z m 104.370699,-1.5397 c -0.25377,-0.42813 0.86534,-1.59564 1.27589,-1.33108 0.46431,0.29921 0.37613,0.55504 -0.39205,1.13748 -0.47236,0.35815 -0.75024,0.41902 -0.88384,0.1936 z M 55.241028,135.72802 c -0.617461,-0.52517 -0.631507,-0.59211 -0.164055,-0.7818 0.556798,-0.22595 1.731261,0.65264 1.46743,1.09776 -0.233393,0.39375 -0.562834,0.31389 -1.303375,-0.31596 z m 15.999299,-1.06645 c -6.730948,-1.18076 -12.835289,-4.73559 -15.632731,-9.10364 -1.613914,-2.52003 -2.122441,-4.47846 -1.999008,-7.69853 0.126722,-3.30584 1.05081,-5.40492 3.511827,-7.97716 3.325981,-3.47628 8.050714,-5.19856 14.238121,-5.19011 4.894126,0.007 8.169661,0.98658 11.547752,3.45458 1.669312,1.21958 4.02165,4.21206 3.799014,4.83283 -0.0567,0.15808 -0.939747,1.00779 -1.96234,1.88826 -1.769217,1.52332 -1.854849,1.65694 -1.76821,2.75902 0.08015,1.01955 0.0288,1.13152 -0.42906,0.93548 -0.28606,-0.12248 -0.745366,-0.29023 -1.020679,-0.37276 -0.694425,-0.2082 -0.625575,-0.57786 0.21453,-1.15182 0.929035,-0.63471 0.901795,-1.21679 -0.133174,-2.84601 -1.664312,-2.61993 -4.852216,-4.4069 -8.301537,-4.65341 -3.884683,-0.27763 -7.028087,0.92894 -9.307736,3.5727 -1.685682,1.95493 -2.241003,3.79824 -2.077809,6.89702 0.213498,4.05393 2.049001,6.76779 5.956642,8.80712 2.971231,1.55064 5.470619,1.98926 8.745793,1.53481 3.102673,-0.43052 4.977707,-1.16274 7.608445,-2.97116 6.107004,-4.19809 9.837094,-10.13185 15.817913,-25.16286 1.73164,-4.351962 1.93474,-4.125612 -2.147279,-2.393002 -3.16248,1.342322 -6.422,3.171032 -7.90088,4.432692 -0.648421,0.55318 -1.259831,0.92144 -1.358692,0.81836 -0.09886,-0.10309 -0.179748,-0.8269 -0.179748,-1.60849 v -1.42105 l 2.21681,-1.68974 c 2.61011,-1.989522 7.20837,-4.414312 10.739599,-5.663282 l 2.51594,-0.88988 3.96451,-8.35103 c 4.95373,-10.43478 6.52885,-12.95558 11.00443,-17.61132 5.09636,-5.3015 10.91513,-9.09824 18.66258,-12.17728 l 2.62238,-1.0422 4.52862,0.20501 4.52862,0.205 -2.30036,1.26812 c -5.58457,3.07859 -11.40427,9.34532 -16.32417,17.57806 -2.20079,3.68269 -5.69049,10.39071 -7.37938,14.18485 -1.50455,3.38003 -1.82253,3.11121 3.03162,2.56295 l 3.05734,-0.34532 0.19011,-1.1733 c 0.3322,-2.05019 2.39046,-5.90252 4.11581,-7.70332 4.42319,-4.61662 12.80712,-6.14495 18.59152,-3.38911 5.10094,2.43023 6.07514,7.56443 2.22252,11.71305 -2.7446,2.95545 -7.02498,4.20864 -16.10355,4.71469 -1.92906,0.10753 -3.66549,0.2974 -3.85874,0.42193 -0.22602,0.14566 -0.39833,1.32791 -0.48307,3.31448 l -0.13171,3.088062 -2.65786,0.76116 -2.65786,0.76116 -0.22316,-2.40506 c -0.12274,-1.322782 -0.18544,-3.058212 -0.13932,-3.856512 l 0.0838,-1.45145 -3.53275,0.19943 c -5.41384,0.30562 -4.72126,-0.19834 -7.11761,5.179172 -7.94718,17.83373 -11.46207,23.28951 -17.941249,27.84827 -4.09715,2.88275 -10.333613,5.43305 -15.494955,6.33642 -3.240197,0.56711 -9.786799,0.5793 -12.951659,0.0241 z M 139.94867,88.850828 c 3.65974,-0.70933 6.93169,-2.24212 7.58105,-3.55144 0.62937,-1.26903 0.53055,-2.31348 -0.29432,-3.11057 -2.37523,-2.29526 -7.0932,-0.15939 -10.2148,4.62434 -0.9025,1.38304 -1.64263,2.59666 -1.64473,2.69694 -0.004,0.20746 0.40657,0.14822 4.5728,-0.65927 z m 25.59604,45.356122 c -0.29184,-0.49237 0.90882,-1.7039 1.29232,-1.30402 0.19999,0.20852 0.0744,0.5197 -0.3957,0.98015 -0.48533,0.47541 -0.75011,0.57105 -0.89662,0.32387 z m -44.56302,-3.31254 c 0.31462,-0.55245 0.86404,-1.51481 1.22094,-2.13858 0.3569,-0.62377 0.57479,-1.21141 0.4842,-1.30587 -0.0906,-0.0944 -1.1504,-0.4166 -2.35514,-0.71588 -1.20474,-0.29928 -2.27159,-0.63361 -2.37077,-0.74297 -0.0992,-0.10935 1.06246,-0.1041 2.58145,0.0117 3.14093,0.23937 2.81634,0.50366 3.41494,-2.78051 0.37849,-2.07652 0.64551,-1.96344 0.95497,0.40441 0.1072,0.8202 0.26064,1.72624 0.34098,2.01344 0.15287,0.54646 0.24696,0.54734 4.82703,0.0452 2.0833,-0.2284 1.30681,0.28236 -1.64472,1.08187 -1.37657,0.37289 -2.50285,0.81094 -2.50285,0.97346 0,0.16252 0.55616,0.98102 1.23591,1.8189 0.67976,0.83787 1.34806,1.72473 1.48511,1.97079 0.29023,0.52105 0.31589,0.539 -2.45883,-1.71996 l -1.88311,-1.53308 -1.40635,1.49981 c -0.7735,0.8249 -1.65148,1.63975 -1.95108,1.81078 -0.5232,0.29868 -0.52212,0.27129 0.0273,-0.69349 z m 47.16761,0.67929 c -0.0831,-0.1402 0.15317,-0.55293 0.52502,-0.91719 0.8263,-0.8094 1.33806,-0.28234 0.57713,0.59437 -0.54401,0.62679 -0.86606,0.72112 -1.10215,0.32282 z M 49.989111,130.93384 c -0.353306,-0.40706 -0.434612,-0.71001 -0.243919,-0.90885 0.190694,-0.19883 0.462693,-0.0947 0.815999,0.31235 0.353305,0.40706 0.434611,0.71001 0.243918,0.90885 -0.190693,0.19883 -0.462692,0.0947 -0.815998,-0.31235 z m 120.732479,-2.0479 c -0.22395,-0.37783 0.88469,-1.32789 1.26416,-1.08335 0.22503,0.14501 0.17377,0.37954 -0.16932,0.77485 -0.53653,0.61816 -0.85766,0.70865 -1.09484,0.3085 z M 47.431063,128.26837 c -0.760928,-0.87671 -0.249161,-1.40377 0.577129,-0.59437 0.371859,0.36426 0.608119,0.77699 0.525022,0.91718 -0.236085,0.39831 -0.558143,0.30398 -1.102151,-0.32281 z M 173.1293,126.05892 c 0,-0.22064 0.24466,-0.63202 0.54369,-0.91419 0.73369,-0.69232 1.12066,-0.0453 0.44114,0.73763 -0.58463,0.67359 -0.98483,0.74534 -0.98483,0.17656 z M 45.01532,125.4516 c -0.455945,-0.50605 -0.547669,-0.78213 -0.310608,-0.93489 0.472214,-0.30431 1.634134,0.94761 1.250626,1.34749 -0.199982,0.20852 -0.498421,0.0775 -0.940018,-0.4126 z m 130.53188,-2.05972 c -0.2167,-0.58056 0.62592,-1.80517 1.05281,-1.53007 0.37764,0.24335 0.30105,0.58686 -0.30302,1.35902 -0.50366,0.64382 -0.56786,0.65846 -0.74979,0.17105 z m -132.92404,-0.9497 c -0.343486,-0.49253 -0.401861,-0.78227 -0.185678,-0.92158 0.410605,-0.2646 1.530318,0.90229 1.276582,1.33037 -0.286955,0.48412 -0.532312,0.39218 -1.090904,-0.40879 z m 134.97902,-2.17917 c -0.24029,-0.40538 0.79149,-1.55972 1.172,-1.31121 0.27326,0.17847 0.25342,0.37909 -0.0877,0.88694 -0.45464,0.67679 -0.84425,0.82924 -1.08428,0.42427 z M 40.571381,119.44366 c -0.547559,-0.87136 -0.551216,-0.93232 -0.06754,-1.12585 0.217734,-0.0871 0.587483,0.20747 0.856566,0.68244 0.39944,0.70506 0.409999,0.86111 0.06754,0.99813 -0.233579,0.0935 -0.597249,-0.14206 -0.856566,-0.55472 z m 139.212599,-2.13794 c -0.27049,-0.10581 -0.25087,-0.34472 0.0837,-1.01933 0.41929,-0.84541 0.98471,-0.93464 0.98471,-0.15539 0,0.58296 -0.67732,1.32769 -1.0684,1.17472 z M 38.583591,116.18595 c -0.332566,-0.52923 -0.368218,-0.78843 -0.129593,-0.94221 0.378983,-0.24422 1.459079,1.0005 1.219261,1.4051 -0.265644,0.44817 -0.608748,0.30242 -1.089668,-0.46289 z m 143.016239,-2.19786 c -0.27261,-0.45993 0.31453,-1.54583 0.83583,-1.54583 0.56245,0 0.52771,0.39043 -0.1075,1.20838 -0.35361,0.45533 -0.59278,0.56615 -0.72833,0.33745 z M 36.744955,112.90028 c -0.235817,-0.53965 -0.236487,-0.78954 -0.0025,-0.94031 0.346126,-0.22306 1.089977,0.65383 1.089977,1.28492 0,0.66635 -0.749478,0.42885 -1.087459,-0.34461 z m 146.471505,-2.15609 c -0.27049,-0.10581 -0.25087,-0.34472 0.0837,-1.01933 0.41928,-0.84541 0.98471,-0.93464 0.98471,-0.15539 0,0.58296 -0.67732,1.32769 -1.0684,1.17472 z M 35.268119,109.7776 c -0.402658,-0.78449 -0.371927,-1.21261 0.08704,-1.21261 0.421999,0 1.110894,1.32527 0.837225,1.61062 -0.309863,0.3231 -0.623458,0.18805 -0.924267,-0.39801 z M 184.5709,106.949 c 0,-0.74958 0.33666,-1.36653 0.7457,-1.36653 0.47335,0 0.50885,0.42065 0.10236,1.21262 -0.34573,0.67358 -0.84806,0.76474 -0.84806,0.15391 z M 33.820775,106.01044 c -0.357867,-0.98145 -0.353492,-1.02447 0.104186,-1.02447 0.210731,0 0.532526,0.34185 0.7151,0.75966 0.425057,0.97273 0.419279,1.02985 -0.104186,1.02985 -0.239877,0 -0.561672,-0.34427 -0.7151,-0.76504 z M 185.82081,103.1219 c 0.0949,-0.36909 0.17424,-0.77172 0.17639,-0.89475 0.007,-0.42172 0.86202,-0.22412 0.86202,0.19929 0,0.76871 -0.34082,1.36653 -0.77906,1.36653 -0.30823,0 -0.38246,-0.19208 -0.25935,-0.67107 z M 32.577942,102.5254 c -0.251366,-0.97802 -0.223974,-1.11844 0.21817,-1.11844 0.409041,0 0.745703,0.61694 0.745703,1.36652 0,0.6838 -0.775676,0.48415 -0.963873,-0.24808 z M 186.85922,99.790968 c 0,-0.76719 0.34048,-1.36653 0.77631,-1.36653 0.27373,0 0.3662,0.1708 0.25543,0.47177 -0.0955,0.25948 -0.17362,0.66211 -0.17362,0.89476 0,0.232642 -0.19308,0.422982 -0.42906,0.422982 -0.23598,0 -0.42906,-0.19034 -0.42906,-0.422982 z M 31.713159,99.145678 c -0.294157,-0.79929 -0.193657,-1.31774 0.255436,-1.31774 0.235983,0 0.42906,0.19034 0.42906,0.42298 0,0.23264 0.07813,0.63528 0.173623,0.89476 0.110767,0.30097 0.01829,0.47177 -0.255436,0.47177 -0.235983,0 -0.507191,-0.2123 -0.602683,-0.47177 z m 156.004181,-3.35579 c 0,-0.96711 0.19196,-1.26164 0.69191,-1.0616 0.47841,0.19142 0.21273,1.90664 -0.29532,1.90664 -0.24478,0 -0.39659,-0.32347 -0.39659,-0.84504 z M 30.838857,95.246528 c -0.124104,-0.51558 -0.06009,-0.87601 0.183453,-1.03296 0.392953,-0.25322 0.745834,0.33385 0.783161,1.30292 0.03183,0.82632 -0.75567,0.60639 -0.966614,-0.26996 z m 157.450563,-3.38362 c 0,-0.5965 0.14302,-0.89475 0.42906,-0.89475 0.28604,0 0.42906,0.29825 0.42906,0.89475 0,0.5965 -0.14302,0.89475 -0.42906,0.89475 -0.28604,0 -0.42906,-0.29825 -0.42906,-0.89475 z M 30.289623,91.490098 c -0.251367,-0.97802 -0.223974,-1.11845 0.21817,-1.11845 0.40904,0 0.745703,0.61695 0.745703,1.36653 0,0.68379 -0.775676,0.48415 -0.963873,-0.24808 z m 51.59294,-0.8207 c -8.545085,-0.7419 -14.820953,-5.69663 -16.471624,-13.00416 -0.623341,-2.75952 -0.415495,-7.82174 0.436371,-10.62825 3.099266,-10.21066 10.400341,-17.9126 22.042091,-23.25233 8.44148,-3.87186 15.141639,-5.26915 26.478429,-5.52195 7.87006,-0.17549 11.03889,0.003 27.58312,1.55349 14.48162,1.35721 18.42523,1.52992 21.16696,0.92699 4.1337,-0.90905 8.99852,-3.21509 12.83303,-6.08317 1.1611,-0.86846 2.16388,-1.52396 2.22842,-1.45667 0.0645,0.0673 0.32925,1.26849 0.58824,2.66932 l 0.4709,2.54697 -1.19163,1.90706 c -1.87997,3.00869 -4.66123,5.69627 -7.33199,7.08504 -7.2366,3.76298 -15.04759,4.0257 -35.62889,1.19835 -26.12152,-3.58844 -33.52871,-3.77857 -41.295689,-1.05997 -9.597193,3.35921 -16.89094,10.8321 -19.671276,20.15443 -0.547612,1.83612 -0.667812,2.90543 -0.67089,5.96839 -0.0036,3.61883 0.02463,3.79172 0.936392,5.72564 2.724218,5.77834 9.287828,7.47253 15.794424,4.07685 2.63478,-1.37505 4.84758,-3.5472 6.29165,-6.17607 0.55063,-1.00239 1.08145,-1.82653 1.1796,-1.8314 0.0982,-0.005 0.85004,1.05771 1.67084,2.36132 l 1.492379,2.3702 -0.8069,1.58163 c -1.146329,2.24699 -4.718999,5.91834 -6.848249,7.03741 -3.16127,1.66146 -6.723197,2.24614 -11.275708,1.85088 z m -36.039566,-0.49609 c 8.01e-4,-0.13697 0.318584,-0.78589 0.706173,-1.44204 0.387589,-0.65615 0.708724,-1.33392 0.713634,-1.50614 0.0049,-0.17223 -0.79556,-0.50487 -1.778822,-0.7392 l -1.787749,-0.42605 2.145299,-0.15556 2.145299,-0.15556 0.25476,-1.56582 c 0.140118,-0.8612 0.350543,-1.56582 0.467611,-1.56582 0.117069,0 0.303482,0.75635 0.414253,1.68077 l 0.2014,1.68077 2.405917,-0.15651 c 1.323255,-0.0861 2.405918,-0.10994 2.405918,-0.053 0,0.0569 -0.933205,0.39169 -2.07379,0.74394 -1.140584,0.35225 -2.121255,0.68703 -2.179268,0.74397 -0.05801,0.0569 0.418512,0.7427 1.058945,1.52393 0.640434,0.78123 1.111386,1.47573 1.04656,1.54332 -0.06483,0.0676 -0.752292,-0.43095 -1.527702,-1.10788 -0.775411,-0.67692 -1.534749,-1.23077 -1.687419,-1.23077 -0.15267,0 -0.874935,0.54825 -1.605033,1.21835 -0.730098,0.67009 -1.326791,1.10629 -1.325986,0.96932 z m 142.732463,-1.74965 c 0,-0.41525 0.19863,-0.83446 0.4414,-0.9316 0.59622,-0.23856 0.6785,-0.0963 0.50114,0.8664 -0.19156,1.03972 -0.94254,1.09167 -0.94254,0.0652 z M 29.996919,88.110368 c -0.287504,-0.78121 -0.197084,-1.31773 0.222076,-1.31773 0.412929,0 0.828336,1.1152 0.574762,1.54301 -0.232841,0.39283 -0.608439,0.28664 -0.796838,-0.22528 z M 188.8615,84.108378 c 0,-0.86162 0.11918,-1.19301 0.42906,-1.19301 0.30988,0 0.42906,0.33139 0.42906,1.19301 0,0.86161 -0.11918,1.193 -0.42906,1.193 -0.30988,0 -0.42906,-0.33139 -0.42906,-1.193 z M 29.823296,83.810118 c 0,-0.5965 0.14302,-0.89475 0.42906,-0.89475 0.28604,0 0.42906,0.29825 0.42906,0.89475 0,0.59651 -0.14302,0.89476 -0.42906,0.89476 -0.28604,0 -0.42906,-0.29825 -0.42906,-0.89476 z m 0.15115,-2.96879 c -0.219548,-0.3704 0.126145,-1.80323 0.435058,-1.80323 0.419027,0 0.580745,0.54709 0.392674,1.32842 -0.187853,0.78042 -0.530192,0.97679 -0.827732,0.47481 z m 158.774634,-0.48549 c -0.29415,-0.79928 -0.19365,-1.31774 0.25544,-1.31774 0.23598,0 0.43082,0.10066 0.43296,0.22369 0.002,0.12303 0.0815,0.52567 0.17639,0.89475 0.20315,0.79043 -0.58075,0.97108 -0.86479,0.1993 z M 30.21062,76.807068 c 0.101616,-0.27611 0.184756,-0.69236 0.184756,-0.925 0,-0.23264 0.201627,-0.42298 0.448059,-0.42298 0.675425,0 0.421963,1.60461 -0.275265,1.74264 -0.408639,0.0809 -0.496767,-0.0164 -0.35755,-0.39466 z m 158.27545,0.2489 c -0.36018,-0.37556 -0.20271,-1.53064 0.23241,-1.70474 0.30998,-0.12403 0.42906,0.0327 0.42906,0.56459 0,0.40495 0.01,0.83358 0.0215,0.9525 0.0301,0.30346 -0.44631,0.43436 -0.68292,0.18765 z M 31.065101,73.437578 c -0.375596,-0.24581 -0.175439,-1.85576 0.230718,-1.85576 0.41928,0 0.62511,0.87749 0.35189,1.50017 -0.146024,0.3328 -0.38995,0.48167 -0.582608,0.35559 z m 156.842929,-0.26509 c -0.37443,-0.39042 -0.19457,-1.59067 0.23837,-1.59067 0.23598,0 0.42906,0.19034 0.42906,0.42298 0,0.23264 0.0781,0.63528 0.17362,0.89475 0.17448,0.47411 -0.45287,0.67769 -0.84105,0.27294 z M 31.645289,69.121238 c 0.09486,-0.36908 0.174233,-0.77172 0.176381,-0.89475 0.0021,-0.12303 0.196982,-0.22369 0.432965,-0.22369 0.473176,0 0.50243,0.13152 0.248773,1.11844 -0.09486,0.36909 -0.365552,0.67107 -0.601535,0.67107 -0.305362,0 -0.379335,-0.19347 -0.256584,-0.67107 z m 155.394221,0 c -0.25366,-0.98692 -0.22441,-1.11844 0.24877,-1.11844 0.23598,0 0.43082,0.10066 0.43296,0.22369 0.002,0.12303 0.0815,0.52567 0.17639,0.89475 0.12275,0.4776 0.0488,0.67107 -0.25659,0.67107 -0.23598,0 -0.50667,-0.30198 -0.60153,-0.67107 z M 32.397655,66.083578 c 0,-0.58562 0.643326,-1.6598 0.99406,-1.6598 0.514514,0 0.519317,0.0313 0.15718,1.02447 -0.153428,0.42077 -0.475223,0.76504 -0.7151,0.76504 -0.239877,0 -0.43614,-0.0584 -0.43614,-0.12971 z m 153.585275,-0.66573 c -0.41984,-1.15141 0.31987,-1.5954 0.77712,-0.46644 0.18144,0.44798 0.27038,0.91517 0.19765,1.03819 -0.2673,0.45215 -0.69232,0.20285 -0.97477,-0.57175 z M 33.870717,61.739518 c 0.304927,-0.91206 0.644261,-1.12628 0.954624,-0.60267 0.246165,0.41531 -0.367837,1.49743 -0.84965,1.49743 -0.324801,0 -0.345404,-0.17562 -0.104974,-0.89476 z m 56.144724,-1.32422 1.27109,-2.24173 -1.05498,-0.29131 c -0.580232,-0.16023 -1.612044,-0.41967 -2.292911,-0.57655 -2.126123,-0.48989 -1.728004,-0.70857 1.08475,-0.59584 l 2.707201,0.1085 0.46869,-2.38601 c 0.50685,-2.58029 0.61763,-2.53056 1.13218,0.50825 0.32596,1.92508 0.36673,1.99498 1.09526,1.87801 1.37936,-0.22146 5.597409,-0.47443 5.45624,-0.32722 -0.0763,0.0796 -1.44253,0.52494 -3.03604,0.98973 l -2.89728,0.84505 1.57615,2.02374 c 0.86688,1.11305 1.52941,2.07246 1.4723,2.13201 -0.0571,0.0596 -0.93929,-0.61284 -1.96039,-1.49419 -1.02111,-0.88136 -2.05502,-1.60962 -2.29757,-1.61835 -0.24256,-0.009 -1.01487,0.59841 -1.71624,1.3492 -2.103925,2.25216 -2.405914,2.16134 -1.00845,-0.30329 z m 94.851559,1.64208 c -0.16285,-0.31729 -0.2961,-0.71993 -0.2961,-0.89475 0,-0.49611 0.77664,-0.37294 0.97054,0.15391 0.45036,1.22371 -0.11042,1.83971 -0.67444,0.74084 z m -149.553981,-2.9667 c -0.295513,-0.19043 -0.300296,-0.39876 -0.02369,-1.03177 0.36275,-0.83014 0.674964,-0.99243 0.965671,-0.50198 0.287939,0.48578 -0.521937,1.80443 -0.941983,1.53375 z m 148.145691,-0.52875 c -0.32315,-0.73951 -0.2188,-1.29618 0.24297,-1.29618 0.13265,0 0.37235,0.39234 0.53267,0.87186 0.38045,1.13797 -0.30092,1.51071 -0.77564,0.42432 z M 36.688254,55.384118 c 0,-0.63109 0.743851,-1.50797 1.08998,-1.28492 0.233966,0.15077 0.233296,0.40066 -0.0025,0.94032 -0.337984,0.77345 -1.087463,1.01096 -1.087463,0.3446 z m 145.082326,-0.33688 c -0.23803,-0.5447 -0.2396,-0.79744 -0.006,-0.94804 0.35037,-0.22578 1.15338,0.73135 1.00445,1.19722 -0.19002,0.59442 -0.68376,0.47122 -0.99855,-0.24918 z m -143.366086,-2.6886 c 0,-0.3645 0.691699,-1.65442 0.887152,-1.65442 0.435333,0 0.565221,0.59252 0.260171,1.18684 -0.263502,0.51338 -1.147323,0.87357 -1.147323,0.46758 z m 141.599836,-0.44181 c -0.40266,-0.78449 -0.37193,-1.21261 0.087,-1.21261 0.422,0 1.11089,1.32528 0.83722,1.61063 -0.30986,0.32309 -0.62345,0.18805 -0.92426,-0.39802 z M 61.287688,51.477388 c 0,-0.0922 0.40116,-0.84751 0.891469,-1.67838 0.490307,-0.83087 0.844281,-1.55237 0.78661,-1.60334 -0.05767,-0.051 -0.877167,-0.29936 -1.821099,-0.55197 l -1.716239,-0.45929 2.059396,-0.0296 2.059393,-0.0296 0.350379,-1.85697 c 0.37454,-1.98503 0.538544,-1.85327 0.961177,0.77215 l 0.185456,1.15207 2.483837,-0.17642 c 2.610203,-0.1854 2.519597,-0.0541 -0.594917,0.86193 l -1.648557,0.48489 1.325755,1.61806 c 0.729161,0.88993 1.237074,1.61806 1.128693,1.61806 -0.108383,0 -0.911455,-0.60679 -1.784606,-1.34842 l -1.587544,-1.34841 -1.539602,1.37148 c -0.846781,0.75428 -1.539601,1.29597 -1.539601,1.20374 z m -20.705544,-2.20984 c -0.272617,-0.45994 0.314531,-1.54584 0.835833,-1.54584 0.562444,0 0.527708,0.39043 -0.107505,1.20838 -0.353616,0.45534 -0.592775,0.56615 -0.728328,0.33746 z m 137.536966,-0.48539 c -0.34962,-0.55637 -0.40816,-0.88672 -0.19628,-1.10765 0.21188,-0.22093 0.45052,-0.0784 0.80015,0.478 0.34962,0.55637 0.40815,0.88673 0.19627,1.10765 -0.21188,0.22093 -0.45052,0.0784 -0.80014,-0.478 z M 42.409053,46.070828 c 0,-0.0878 0.209355,-0.49277 0.465234,-0.89997 0.368806,-0.5869 0.548164,-0.66858 0.865337,-0.39412 0.339967,0.2942 0.327867,0.42946 -0.08051,0.89997 -0.443511,0.511 -1.250063,0.76529 -1.250063,0.39412 z m 133.421827,-0.45509 c -0.45633,-0.52576 -0.47309,-0.6541 -0.11584,-0.88694 0.29712,-0.19365 0.55571,-0.0832 0.89588,0.38268 0.81259,1.11288 0.13075,1.55364 -0.78004,0.50426 z M 44.835856,43.240278 c -0.291844,-0.49237 0.908818,-1.70389 1.292326,-1.30401 0.199982,0.20852 0.07435,0.5197 -0.395706,0.98015 -0.485331,0.47541 -0.750108,0.57105 -0.89662,0.32386 z m 2.318553,-2.9315 c -0.0831,-0.1402 0.153163,-0.55293 0.525022,-0.91719 0.82629,-0.80939 1.338057,-0.28234 0.577129,0.59438 -0.544008,0.62678 -0.866066,0.72111 -1.102151,0.32281 z m 2.574359,-2.68426 c -0.0831,-0.1402 0.153163,-0.55293 0.525023,-0.91719 0.826289,-0.8094 1.338057,-0.28234 0.577128,0.59437 -0.544008,0.62679 -0.866066,0.72112 -1.102151,0.32282 z M 168.712,37.301698 c -0.76093,-0.87671 -0.24917,-1.40377 0.57713,-0.59437 0.37185,0.36426 0.60811,0.77699 0.52502,0.91719 -0.23609,0.3983 -0.55814,0.30397 -1.10215,-0.32282 z M 52.570162,35.206438 c -0.293311,-0.49485 0.723468,-1.60614 1.105283,-1.20803 0.203943,0.21265 0.110105,0.50242 -0.301776,0.93189 -0.418802,0.43668 -0.65935,0.51935 -0.803507,0.27614 z m 113.440048,-0.42325 c -0.45594,-0.50605 -0.54767,-0.78213 -0.3106,-0.9349 0.47221,-0.3043 1.63413,0.94762 1.25062,1.3475 -0.19998,0.20852 -0.49842,0.0775 -0.94002,-0.4126 z m -34.4984,-2.27761 c 0.28257,-0.57121 0.82549,-1.55455 1.2065,-2.18519 0.38101,-0.63064 0.60997,-1.2346 0.5088,-1.34213 -0.10116,-0.10753 -1.23674,-0.48979 -2.52349,-0.84947 l -2.33956,-0.65395 2.78412,0.0575 2.78413,0.0575 0.31472,-1.64039 c 0.7003,-3.65008 0.77324,-3.6891 1.25506,-0.67146 l 0.3215,2.01359 3.13519,-0.0655 c 3.48278,-0.0728 3.44742,0.0995 -0.22683,1.10565 -2.81483,0.77079 -2.76037,0.45029 -0.54788,3.22435 0.69317,0.8691 1.21287,1.62869 1.15491,1.68797 -0.058,0.0593 -1.05382,-0.68512 -2.21299,-1.65423 l -2.10758,-1.76202 -2.01018,1.85825 c -1.87505,1.73332 -1.97565,1.78842 -1.49642,0.81967 z m -76.398237,0.26264 c -0.263826,-0.44511 1.076304,-1.51376 1.433395,-1.14303 0.16242,0.16862 0.06223,0.50871 -0.258862,0.87865 -0.595434,0.68604 -0.885855,0.75141 -1.174533,0.26438 z m 108.190767,-0.20731 c -0.48972,-0.56424 -0.63236,-1.24797 -0.25794,-1.2364 0.11799,0.004 0.51416,0.24698 0.88037,0.54073 0.56368,0.45215 0.60326,0.58825 0.25795,0.88707 -0.32194,0.27859 -0.50747,0.23825 -0.88038,-0.1914 z M 58.021855,30.462988 c -0.263831,-0.44511 0.910632,-1.32371 1.467429,-1.09776 0.467455,0.1897 0.453407,0.25664 -0.164053,0.78181 -0.740543,0.62985 -1.069983,0.70971 -1.303376,0.31595 z m 102.195825,-0.31595 c -0.61218,-0.52069 -0.62816,-0.59347 -0.17106,-0.779 0.56707,-0.23016 1.35505,0.3179 1.35505,0.94248 0,0.5675 -0.38744,0.514 -1.18399,-0.16348 z m -99.216032,-1.9503 c 0,-0.58708 1.116643,-1.20237 1.485014,-0.81827 0.181887,0.18965 0.0491,0.45959 -0.380396,0.77326 -0.817356,0.59694 -1.104618,0.60864 -1.104618,0.045 z m 96.369742,-0.12655 c -0.95979,-0.81757 -0.39466,-1.41274 0.5978,-0.62957 0.51657,0.40763 0.62855,0.65487 0.40334,0.89055 -0.22555,0.23604 -0.50241,0.16386 -1.00114,-0.26098 z m -93.346986,-1.78996 c -0.08659,-0.14609 0.179438,-0.49578 0.591181,-0.77708 0.596989,-0.40786 0.795103,-0.43305 0.978077,-0.12436 0.1411,0.23806 0.04464,0.53361 -0.250514,0.7676 -0.567246,0.4497 -1.099509,0.50372 -1.318744,0.13384 z m 90.098616,-0.19235 c -0.3981,-0.31394 -0.46883,-0.53064 -0.24825,-0.76063 0.37005,-0.38585 1.52006,0.25191 1.52006,0.84298 0,0.4986 -0.58297,0.46085 -1.27181,-0.0823 z m -86.952177,-1.59715 c -0.204224,-0.34455 1.197663,-1.30606 1.561964,-1.0713 0.464277,0.29919 0.315204,0.62698 -0.450599,0.9908 -0.87491,0.41565 -0.911151,0.41828 -1.111365,0.0805 z m 83.805737,-0.19236 c -0.3981,-0.31394 -0.46883,-0.53063 -0.24825,-0.76063 0.37005,-0.38585 1.52006,0.25191 1.52006,0.84298 0,0.4986 -0.58297,0.46086 -1.27181,-0.0824 z m -80.535614,-1.61928 c 0,-0.31369 0.922318,-0.90525 1.411395,-0.90525 0.47579,0 0.35767,0.8098 -0.147611,1.01197 -0.672823,0.26921 -1.263784,0.2193 -1.263784,-0.10672 z m 77.445314,0.0822 c -0.53676,-0.14626 -0.7035,-0.98742 -0.19573,-0.98742 0.48908,0 1.4114,0.59156 1.4114,0.90525 0,0.29636 -0.3442,0.31963 -1.21567,0.0822 z m -74.146985,-1.56896 c -0.237813,-0.40122 0.941229,-0.994372 1.515191,-0.76226 0.432521,0.17492 0.425161,0.23411 -0.07702,0.61947 -0.642111,0.49274 -1.19803,0.54793 -1.438169,0.14279 z m 70.653965,-0.11884 c -0.29008,-0.22118 -0.43881,-0.55165 -0.33049,-0.73438 0.26117,-0.440642 1.6067,0.17656 1.6067,0.737 0,0.51289 -0.60169,0.51166 -1.27621,-0.003 z M 77.140833,19.947126 c -0.227213,-0.38334 0.100129,-0.72496 0.951701,-0.99323 0.454592,-0.1432 0.64359,-0.0795 0.64359,0.21686 0,0.55446 -1.34022,1.206702 -1.595291,0.77637 z m 64.181927,-0.0699 c -0.50904,-0.23561 -0.69545,-0.48479 -0.54835,-0.73297 0.33304,-0.56188 1.79372,0.0723 1.56954,0.68145 -0.0925,0.25131 -0.18657,0.44603 -0.20907,0.4327 -0.0225,-0.0133 -0.38795,-0.18485 -0.81212,-0.38118 z m -60.870397,-1.49845 c 0,-0.35342 0.792005,-0.76286 1.50171,-0.77634 0.40938,-0.008 0.21213,0.82783 -0.237925,1.0079 -0.749225,0.29978 -1.263785,0.2055 -1.263785,-0.23156 z m 57.146957,0.17137 c -0.31449,-0.13238 -0.40726,-0.34605 -0.25891,-0.59633 0.28316,-0.47773 1.82815,-0.1523 1.66739,0.35121 -0.13197,0.41332 -0.75238,0.5213 -1.40848,0.24512 z m -53.579235,-0.9649 c -0.259644,-0.43805 0.06752,-0.7955 0.875514,-0.95655 0.546073,-0.10884 0.71139,-0.0314 0.647817,0.30354 -0.104144,0.54868 -1.285105,1.05492 -1.523331,0.65301 z m 50.438385,-0.0509 c -0.96413,-0.34134 -0.78143,-1.09908 0.21702,-0.90006 0.80956,0.16136 1.02797,0.41179 0.74918,0.859 -0.12836,0.20591 -0.46068,0.22003 -0.9662,0.041 z m -47.141148,-1.24429 c 0,-0.53338 1.645215,-0.80615 1.830223,-0.30345 0.07476,0.20315 -0.05954,0.44757 -0.29846,0.54317 -0.765488,0.30628 -1.531763,0.18636 -1.531763,-0.23972 z m 43.226898,0.14405 c -0.21681,-0.14318 -0.31642,-0.39156 -0.22136,-0.55193 0.25104,-0.42353 1.61669,-0.0782 1.61669,0.4088 0,0.46107 -0.79105,0.54222 -1.39533,0.14313 z m -39.622359,-0.80306 c -0.0748,-0.20314 0.0595,-0.44757 0.29846,-0.54316 0.76548,-0.30629 1.53176,-0.18637 1.53176,0.23971 0,0.53338 -1.64522,0.80616 -1.83022,0.30345 z m 36.655589,0.23909 c -1.00674,-0.12917 -1.06083,-0.95606 -0.0625,-0.95606 0.39825,0 0.8003,0.20711 0.89346,0.46024 0.21225,0.57672 0.13924,0.62029 -0.83092,0.49582 z m -33.109129,-1.10519 c 0,-0.29825 0.28604,-0.44738 0.85812,-0.44738 0.57208,0 0.85812,0.14913 0.85812,0.44738 0,0.29825 -0.28604,0.44738 -0.85812,0.44738 -0.57208,0 -0.85812,-0.14913 -0.85812,-0.44738 z m 28.802469,0.25665 c -0.34617,-0.36094 0.1229,-0.70403 0.96257,-0.70403 0.55707,0 0.84124,0.15113 0.84124,0.44738 0,0.45108 -1.42315,0.65357 -1.80381,0.25665 z m -25.196289,-0.57908 c -0.19185,-0.52129 0.0906,-0.72145 1.01813,-0.72145 0.50022,0 0.81045,0.15829 0.81045,0.41353 0,0.52974 -1.645,0.80675 -1.82858,0.30792 z m 22.351949,0.23461 c -1.00674,-0.12917 -1.06082,-0.95606 -0.0625,-0.95606 0.39825,0 0.8003,0.20711 0.89346,0.46024 0.21225,0.57673 0.13924,0.62029 -0.83092,0.49582 z m -18.80713,-0.80693 c 0,-0.29825 0.28604,-0.44738 0.85812,-0.44738 0.57208,0 0.85812,0.14913 0.85812,0.44738 0,0.29825 -0.28604,0.44737 -0.85812,0.44737 -0.57208,0 -0.85812,-0.14912 -0.85812,-0.44737 z m 14.3717,0.0746 c 0.18323,-0.58198 1.93258,-0.66658 1.93258,-0.0935 0,0.33611 -0.28612,0.46627 -1.02498,0.46627 -0.69189,0 -0.98683,-0.12115 -0.9076,-0.37281 z m -10.65318,-0.37282 c 0,-0.29825 0.28604,-0.44737 0.85812,-0.44737 0.57208,0 0.85812,0.14912 0.85812,0.44737 0,0.29825 -0.28604,0.44738 -0.85812,0.44738 -0.57208,0 -0.85812,-0.14913 -0.85812,-0.44738 z m 3.43248,0 c 0,-0.29825 0.28604,-0.44737 0.85812,-0.44737 0.57208,0 0.85812,0.14912 0.85812,0.44737 0,0.29825 -0.28604,0.44738 -0.85812,0.44738 -0.57208,0 -0.85812,-0.14913 -0.85812,-0.44738 z m 3.71852,0 c 0,-0.29825 0.28604,-0.44737 0.85812,-0.44737 0.57208,0 0.85812,0.14912 0.85812,0.44737 0,0.29825 -0.28604,0.44738 -0.85812,0.44738 -0.57208,0 -0.85812,-0.14913 -0.85812,-0.44738 z"
       id="path39" />
  </g>
</svg>
