<?xml version="1.0" encoding="UTF-8" standalone="no"?>
<svg id="svg2" xmlns:rdf="http://www.w3.org/1999/02/22-rdf-syntax-ns#" xmlns="http://www.w3.org/2000/svg" height="259.42mm" width="366.89mm" version="1.1" xmlns:cc="http://creativecommons.org/ns#" xmlns:dc="http://purl.org/dc/elements/1.1/" viewBox="0 0 1300 919.19341">
<g id="layer1" transform="translate(-50 -492.77)">
<g id="g4244">
<rect id="rect4242" height="919.19" width="1300" y="492.77" x="50" fill="#ffeded"/>
<g fill-rule="evenodd">
<path id="path4140" d="m50 492.77v140.42l850 419.21-837.5-559.63h-12.5zm850 559.6-490.75-559.6h-147.34l638.09 559.6zl-275.96-559.6h-97.947l373.91 559.6zl-111.31-559.6h-78.646l189.96 559.6zl36.678-559.6h-73.355l36.68 559.6zl189.96-559.6h-78.646l-111.4 559.6zl373.91-559.6h-97.947l-276 559.6zl450-394.64v-118.49l-450 513.13zl450-221.92v-78.764l-450 300.68zl450-89.51v-63.244l-450 152.75zl450 29.494v-58.988l-450 29.494zl450 152.75v-63.244l-450-89.51zl450 300.68v-78.766l-450-221.92zl315.36 359.6h94.682l-410.1-359.6zl177.33 359.6h62.941l-240.2-359.6zl71.529 359.6h50.537l-122.1-359.6zl-23.568 359.6h47.137l-23.57-359.6zl-122.07 359.6h50.537l71.53-359.6zl-240.28 359.6h62.941l177.34-359.6zl-410.04 359.6h94.682l315.36-359.6zl-729.19 359.6h191.02l538.17-359.6zl-850 169.08v119.46l850-288.54zl-850-55.711v111.42l850-55.713zl-850-288.54v119.46l850 169.07z" fill="#ffd5d5"/>
<path id="path4240" opacity="0.432" d="m570 1002.6c-14.032-33.876-14.032-76.124 0-110 19.844-47.907 62.093-90.156 110-110 33.876-14.032 76.124-14.032 110 0 47.907 19.844 110 110 110 110s62.093-90.156 110-110c33.876-14.032 76.124-14.032 110 0 47.907 19.844 90.156 62.093 110 110 14.032 33.876 14.032 76.124 0 110-59.532 143.72-330 330-330 330s-270.47-186.28-330-330z" fill="#fff"/>
<path id="path4138" opacity=".506" d="m600 1007.1c-12.756-30.796-12.756-69.204 0-100 18.04-43.552 56.448-81.96 100-100 30.796-12.756 69.204-12.756 100 0 43.552 18.04 100 100 100 100s56.448-81.96 100-100c30.796-12.756 69.204-12.756 100 0 43.552 18.04 81.96 56.448 100 100 12.756 30.796 12.756 69.204 0 100-54.12 130.66-300 300-300 300s-245.88-169.34-300-300z" fill="#ff8080"/>
</g>
</g>
</g>
</svg>
